<?xml version="1.0" standalone="no"?><!DOCTYPE svg PUBLIC "-//W3C//DTD SVG 1.1//EN" "http://www.w3.org/Graphics/SVG/1.1/DTD/svg11.dtd"><svg t="1550139448215" class="icon" style="" viewBox="0 0 1024 1024" version="1.1" xmlns="http://www.w3.org/2000/svg" p-id="2715" xmlns:xlink="http://www.w3.org/1999/xlink" width="200" height="200"><defs><style type="text/css"></style></defs><path d="M384 806.4l275.2-275.2-57.6-57.6-19.2 19.2c-12.8 12.8-38.4 12.8-51.2 0-12.8-12.8-12.8-38.4 0-51.2l19.2-19.2c25.6-25.6 64-25.6 89.6 0l64 70.4c25.6 25.6 25.6 64 0 89.6l-275.2 275.2c6.4 12.8 12.8 32 12.8 44.8 0 51.2-44.8 96-96 96S256 947.2 256 896s44.8-96 96-96c12.8 0 25.6 0 32 6.4z m275.2-563.2L384 518.4l57.6 57.6 19.2-19.2c12.8-12.8 38.4-12.8 51.2 0 12.8 12.8 12.8 38.4 0 51.2l-25.6 25.6c-25.6 25.6-64 25.6-89.6 0l-64-70.4c-25.6-25.6-25.6-64 0-89.6L614.4 192c-6.4-12.8-6.4-19.2-6.4-32 0-51.2 44.8-96 96-96s96 44.8 96 96S755.2 256 704 256c-19.2 0-32-6.4-44.8-12.8z m198.4 275.2l-128-128c-12.8-12.8-12.8-38.4 0-51.2 12.8-12.8 38.4-12.8 51.2 0l128 128c12.8 12.8 19.2 32 19.2 51.2 0 19.2-6.4 38.4-19.2 51.2l-128 128c-12.8 12.8-38.4 12.8-51.2 0-12.8-12.8-12.8-38.4 0-51.2l128-128z m-691.2 0l128 128c12.8 12.8 12.8 38.4 0 51.2-12.8 12.8-38.4 12.8-51.2 0l-128-128c-12.8-12.8-19.2-32-19.2-51.2 0-19.2 6.4-38.4 19.2-51.2l128-128c12.8-12.8 38.4-12.8 51.2 0 12.8 12.8 12.8 38.4 0 51.2l-128 128z" fill="#40a9ff" p-id="2716"></path></svg>